<!-- Created with Inkscape (http://www.inkscape.org/) -->
<svg xmlns:rdf="http://www.w3.org/1999/02/22-rdf-syntax-ns#" xmlns="http://www.w3.org/2000/svg" height="512" width="512" version="1.1" xmlns:cc="http://creativecommons.org/ns#" xmlns:dc="http://purl.org/dc/elements/1.1/">
 <defs></defs>
 <metadata>
  <rdf:RDF>
   <cc:Work rdf:about="">
    <dc:format>image/svg+xml</dc:format>
    <dc:type rdf:resource="http://purl.org/dc/dcmitype/StillImage"/>
    <dc:title/>
   </cc:Work>
  </rdf:RDF>
 </metadata>
 <g transform="translate(117.62396,-84.822439)">
  <g transform="translate(1.6777827e-6,1.8415542)">
   <path d="M111.63,591.3c-55.963-5.4-109.67-30.37-151.06-70.25-70.492-67.9-95.402-169.5-64.412-262.64,30.113-90.48,108.18-155.88,203.84-170.77,18.454-2.8716,54.858-2.8627,73.525,0.01797,38.229,5.8996,72.84,19.403,105.2,41.044,14.865,9.9398,18.313,13.995,18.313,21.535,0,9.2195-9.1222,17.08-18.125,15.619-2.3976-0.38908-10.014-4.6096-16.924-9.3789-37.356-25.781-79.383-38.696-125.9-38.689-48.713,0.007-90.982,13.828-131.78,43.088-4.6075,3.3043-15.65,13.263-24.539,22.131-68.025,67.86-83.979,170.18-40.045,256.81,39.893,78.666,126.37,127.07,213.66,119.6,40.757-3.4863,73.977-15.145,108.09-37.937,12.658-8.4558,15.558-9.8448,20.557-9.8448,5.008,0,6.4611,0.69921,10.412,5.01,3.531,3.853,4.5902,6.1761,4.5863,10.059-0.008,8.0553-4.0297,12.788-19.696,23.177-48.758,32.334-107.52,47.019-165.7,41.408zm219.34-117.99c-5.9464-2.9434-11.133-11.017-11.133-17.329,0-6.3945,5.2062-14.438,11.234-17.356,7.0537-3.4146,10.63-3.4338,17.983-0.0964,4.3863,1.9908,6.3626,3.9671,8.3534,8.3534,3.352,7.3855,3.329,11.931-0.0946,18.642-1.9552,3.8325-4.4021,6.1574-8.3828,7.9646-7.2444,3.289-11.03,3.2513-17.96-0.17889zm-31.923-73.798c-5.3518-1.6439-7.8133-3.6779-11.226-9.2758-10.108-16.582,8.7338-35.942,26.273-26.994,7.2795,3.7137,11.758,12.49,10.419,20.417-1.1772,6.9678-7.4247,14.167-13.84,15.949-5.6638,1.5731-6.2044,1.5686-11.626-0.0966zm66.419-2.2126c-13.269-6.6667-14.618-25.384-2.4541-34.046,9.0182-6.4215,23.515-2.9106,28.602,6.9271,6.5976,12.758-3.3,29.464-17.457,29.464-2.2131,0-6.1242-1.0553-8.6914-2.3451zm-248.31-10.13c-13.669-5.7354-23.127-14.678-29.182-27.592-3.1154-6.6442-3.5344-9.2075-3.5344-21.621,0-12.856,0.34261-14.782,3.9306-22.101,5.2336-10.676,14.778-19.974,25.925-25.254,8.1933-3.8812,10.236-4.2828,21.783-4.2828,11.532,0,13.596,0.40442,21.729,4.2577,4.957,2.3483,11.769,7.0394,15.19,10.461,3.4214,3.4214,8.1125,10.234,10.461,15.19,3.9059,8.2448,4.2562,10.096,4.2399,22.4-0.0156,11.697-0.47532,14.394-3.5946,21.082-4.9841,10.687-14.409,20.296-25.047,25.538-7.7964,3.8417-10.309,4.3899-21.601,4.7128-10.913,0.31209-13.876-0.0952-20.299-2.7904zm113.34-31.012c-8.9117-3.8793-13.84-17.373-9.4472-25.867,2.9708-5.7449,9.2077-10.617,14.977-11.699,3.7642-0.70617,6.356-0.19674,11.091,2.1799,8.3337,4.1826,11.529,8.8586,11.529,16.871,0,15.116-14.321,24.535-28.151,18.515zm71.226-36.995c-10.3-2.2004-15.411-8.7191-15.419-19.665-0.005-7.6947,3.6694-13.555,10.818-17.252,12.239-6.3288,28.055,3.4092,28.068,17.282,0.0121,13.031-11.051,22.288-23.467,19.635zm68.376-1.2638c-17.466-4.0452-21.049-26.915-5.6845-36.283,8.5505-5.2133,21.339-2.3116,26.481,6.0087,3.567,5.7716,3.6024,15.98,0.0754,21.764-4.0654,6.6676-13.035,10.325-20.872,8.5096zm-36.186-77.172c-15.155-5.4054-17.98-25.084-4.9948-34.794,5.1668-3.8636,15.955-4.2903,21.437-0.84785,20.094,12.618,5.8105,43.579-16.443,35.642z" stroke="#000" stroke-width="1.34125245" fill="#000"/>
  </g>
 </g>
</svg>
