<!-- Created with Inkscape (http://www.inkscape.org/) -->
<svg xmlns:rdf="http://www.w3.org/1999/02/22-rdf-syntax-ns#" xmlns="http://www.w3.org/2000/svg" height="512" width="512" version="1.1" xmlns:cc="http://creativecommons.org/ns#" xmlns:dc="http://purl.org/dc/elements/1.1/">
 <metadata>
  <rdf:RDF>
   <cc:Work rdf:about="">
    <dc:format>image/svg+xml</dc:format>
    <dc:type rdf:resource="http://purl.org/dc/dcmitype/StillImage"/>
    <dc:title/>
   </cc:Work>
  </rdf:RDF>
 </metadata>
 <g transform="translate(0,-540.36218)">
  <g fill="#000" transform="matrix(1.0345394,0,0,1.0345394,-21.98397,-22.898939)">
   <path d="M268.72,5.0938c-135.92,0-246.47,110.58-246.47,246.47,0,135.9,110.55,246.44,246.47,246.44,135.88,0,246.44-110.54,246.44-246.44,0.001-135.9-110.56-246.47-246.44-246.47zm0,22.625c123.6,0,223.81,100.21,223.81,223.84,0,27.958-53.846,52.03-131.25,62.906-2.032,0.288-4.0478,0.57675-6.0938,0.84375-18.598,2.399-38.438,4.0375-59.188,4.8125-8.934,0.334-18.055,0.53125-27.281,0.53125-9.255,0-18.354-0.19725-27.312-0.53125-20.724-0.774-40.6-2.4125-59.188-4.8125-1.656-13.872-2.7818-28.314-3.3438-43.156-0.269-6.785-0.375-13.649-0.375-20.594,0-6.952,0.106-13.833,0.375-20.625,0.562-14.842,1.6878-29.258,3.3438-43.125,0.336-2.894,0.70375-5.7588,1.0938-8.5938,12.14-88.115,45.774-151.5,85.406-151.5z" transform="translate(0,540.36218)" stroke="#000" stroke-linecap="butt" stroke-miterlimit="4" stroke-dasharray="none" stroke-width="2"/>
   <path d="m361.3,729.02c-2.246-3.276-4.653-6.412-7.221-9.426-20.538-24.208-51.131-39.592-85.358-39.592-11.1,0-20.979,16.988-27.306,43.363-2.513,10.516-4.464,22.517-5.722,35.541-0.988,10.436-1.524,21.534-1.524,33.02s0.536,22.583,1.524,33.013c10.444,0.989,21.527,1.524,33.028,1.524,11.483,0,22.569-0.536,33.013-1.524,22.957-2.18,42.773-6.593,56.812-12.41,13.865-5.742,22.074-12.876,22.074-20.604,0-23.32-7.126-44.974-19.32-62.905z"/>
  </g>
 </g>
</svg>
