<!-- Created with Inkscape (http://www.inkscape.org/) -->
<svg xmlns:rdf="http://www.w3.org/1999/02/22-rdf-syntax-ns#" xmlns="http://www.w3.org/2000/svg" xml:space="preserve" height="512" width="512" version="1.1" xmlns:cc="http://creativecommons.org/ns#" xmlns:dc="http://purl.org/dc/elements/1.1/"><metadata><rdf:RDF><cc:Work rdf:about=""><dc:format>image/svg+xml</dc:format><dc:type rdf:resource="http://purl.org/dc/dcmitype/StillImage"/><dc:title/></cc:Work></rdf:RDF></metadata><g fill-rule="evenodd" transform="matrix(1.25,0,0,-1.25,1.0054213e-5,512)" fill="#000"><path d="m162.51,337.31,0-41.852-83.704,0,0-41.852-41.827,0,0-42.758-35.8,0-0.58808-6.3464c-1.9662-21.121,0.92917-42.257,9.6544-61.553l3.7735-7.6451,0.41656-0.7106c25.813-43.831,71.144-62.305,120.56-62.305,95.64,0,174.52,42.715,210.75,132.96,24.212-1.2673,48.972,5.8926,60.818,29.012l3.0384,5.9053-5.7583,3.308c-14.007,8.0842-32.65,9.2064-48.541,4.5331-1.9564,16.889-13.07,31.69-26.268,42.293l-5.2437,4.2146-4.3861-5.0722c-8.8369-10.218-11.473-27.226-10.267-40.284,0.88899-9.5995,3.8941-19.339,9.8014-27.052-4.4851-2.6983-9.5916-4.8301-14.138-6.3709-9.2535-3.1355-19.29-4.8762-29.061-4.8762h-21.171v42.758h-41.852v83.704h-50.208zm6.9835-6.9835,36.265,0,0-36.265-36.265,0,0,36.265zm3.0139-3.0139,0-30.213,2.8669,0,0,30.213-2.8669,0zm5.3908,0,0-30.213,2.9649,0,0,30.213-2.9649,0zm5.4888,0,0-30.213,2.9649,0,0,30.213-2.9649,0zm5.4888,0,0-30.213,2.9894,0,0,30.213-2.9894,0zm5.4888,0,0-30.213,2.9894,0,0,30.213-2.9894,0zm5.5133,0,0-30.213,2.8669,0,0,30.213-2.8669,0zm-114.09-38.813,36.265,0,0-36.29-36.265,0,0,36.29zm41.852,0,36.265,0,0-36.29-36.265,0,0,36.29zm41.852,0,36.265,0,0-36.29-36.265,0,0,36.29zm-80.69-3.0384,0-30.213,2.8669,0,0,30.213-2.8669,0zm5.3908,0,0-30.213,2.9649,0,0,30.213-2.9649,0zm5.4888,0,0-30.213,2.9894,0,0,30.213-2.9894,0zm5.4888,0,0-30.213,2.9894,0,0,30.213-2.9894,0zm5.5133,0,0-30.213,2.9649,0,0,30.213-2.9649,0zm5.4888,0,0-30.213,2.8669,0,0,30.213-2.8669,0zm14.482,0,0-30.213,2.8669,0,0,30.213-2.8669,0zm5.3908,0,0-30.213,2.9649,0,0,30.213-2.9649,0zm5.4888,0,0-30.213,2.9894,0,0,30.213-2.9894,0zm5.4888,0,0-30.213,2.9894,0,0,30.213-2.9894,0zm5.5133,0,0-30.213,2.9649,0,0,30.213-2.9649,0zm5.4888,0,0-30.213,2.8669,0,0,30.213-2.8669,0zm14.482,0,0-30.213,2.8669,0,0,30.213-2.8669,0zm5.3908,0,0-30.213,2.9649,0,0,30.213-2.9649,0zm5.4888,0,0-30.213,2.9649,0,0,30.213-2.9649,0zm5.4888,0,0-30.213,2.9894,0,0,30.213-2.9894,0zm5.4888,0,0-30.213,2.9894,0,0,30.213-2.9894,0zm5.5133,0,0-30.213,2.8669,0,0,30.213-2.8669,0zm-155.94-38.813,36.265,0,0-36.265-36.265,0,0,36.265zm41.852,0,36.265,0,0-36.265-36.265,0,0,36.265zm41.852,0,36.265,0,0-36.265-36.265,0,0,36.265zm41.852,0,36.265,0,0-36.265-36.265,0,0,36.265zm41.852,0,36.265,0,0-36.265-36.265,0,0,36.265zm-164.37-3.0384,0-30.213,2.8424,0,0,30.213-2.8424,0zm5.3663,0,0-30.213,2.9894,0,0,30.213-2.9894,0zm5.4888,0,0-30.213,2.9894,0,0,30.213-2.9894,0zm5.5133,0,0-30.213,2.9649,0,0,30.213-2.9649,0zm5.4888,0,0-30.213,2.9649,0,0,30.213-2.9649,0zm5.4888,0,0-30.213,2.8669,0,0,30.213-2.8669,0zm14.482,0,0-30.213,2.8669,0,0,30.213-2.8669,0zm5.3908,0,0-30.213,2.9649,0,0,30.213-2.9649,0zm5.4888,0,0-30.213,2.9894,0,0,30.213-2.9894,0zm5.4888,0,0-30.213,2.9894,0,0,30.213-2.9894,0zm5.5133,0,0-30.213,2.9649,0,0,30.213-2.9649,0zm5.4888,0,0-30.213,2.8669,0,0,30.213-2.8669,0zm14.482,0,0-30.213,2.8669,0,0,30.213-2.8669,0zm5.3908,0,0-30.213,2.9649,0,0,30.213-2.9649,0zm5.4888,0,0-30.213,2.9894,0,0,30.213-2.9894,0zm5.4888,0,0-30.213,2.9894,0,0,30.213-2.9894,0zm5.5133,0,0-30.213,2.9649,0,0,30.213-2.9649,0zm5.4888,0,0-30.213,2.8669,0,0,30.213-2.8669,0zm14.482,0,0-30.213,2.8669,0,0,30.213-2.8669,0zm5.3908,0,0-30.213,2.9649,0,0,30.213-2.9649,0zm5.4888,0,0-30.213,2.9649,0,0,30.213-2.9649,0zm5.4888,0,0-30.213,2.9894,0,0,30.213-2.9894,0zm5.4888,0,0-30.213,2.9894,0,0,30.213-2.9894,0zm5.5133,0,0-30.213,2.8669,0,0,30.213-2.8669,0zm14.482,0,0-30.213,2.8669,0,0,30.213-2.8669,0zm5.3663,0,0-30.213,2.9894,0,0,30.213-2.9894,0zm5.5133,0,0-30.213,2.9649,0,0,30.213-2.9649,0zm5.4888,0,0-30.213,2.9649,0,0,30.213-2.9649,0zm5.4888,0,0-30.213,2.9894,0,0,30.213-2.9894,0zm5.5133,0,0-30.213,2.8424,0,0,30.213-2.8424,0zm-121.93-92.035c5.525,0,9.9974-4.4969,9.9974-10.022,0-5.525-4.4724-9.9974-9.9974-9.9974-5.527,0-10.022,4.4724-10.022,9.9974s4.4949,10.022,10.022,10.022zm-19.358-26.905c7.5676-17.449,21.165-33.45,45.944-45.209-3.7755-0.14212-7.5735-0.22053-11.394-0.22053-51.762,0.31952-79.701,17.819-102.42,40.529,6.8169-0.36167,13.294-0.53907,19.456-0.53907,5.3466,0,10.447,0.12056,15.29,0.39205,12.855,0.72236,23.924,2.4209,33.129,5.0477z"/><path d="m119.79,148.74c0.91545,0,1.7878-0.17251,2.5934-0.48419-0.87233-0.50575-1.4643-1.4516-1.4643-2.5327,0-1.6162,1.3095-2.9238,2.9257-2.9238,1.1066,0,2.0671,0.61454,2.565,1.5222,0.34991-0.84586,0.54594-1.774,0.54594-2.7493,0-3.9568-3.209-7.1648-7.1658-7.1648s-7.1677,3.208-7.1677,7.1648c0,3.9598,3.2109,7.1678,7.1677,7.1678"/></g></svg>
