<!-- Created with Inkscape (http://www.inkscape.org/) -->
<svg xmlns:rdf="http://www.w3.org/1999/02/22-rdf-syntax-ns#" xmlns="http://www.w3.org/2000/svg" xml:space="preserve" height="512" width="791.29" version="1.1" xmlns:cc="http://creativecommons.org/ns#" xmlns:dc="http://purl.org/dc/elements/1.1/"><metadata><rdf:RDF><cc:Work rdf:about=""><dc:format>image/svg+xml</dc:format><dc:type rdf:resource="http://purl.org/dc/dcmitype/StillImage"/><dc:title/></cc:Work></rdf:RDF></metadata><g transform="matrix(1.25,0,0,-1.25,1.0054213e-5,512)"><g fill-rule="evenodd" fill="#000" transform="matrix(1.5147929,0,0,1.5147929,-221.68913,-335.67811)"><path d="m390.19,110,0,53.375-106.75,0,0,53.375-53.344,0,0,54.531-45.656,0-0.75,8.0938c-2.5075,26.936,1.185,53.891,12.312,78.5l4.8125,9.75,0.53125,0.90625c32.93,55.9,90.74,79.46,153.75,79.46,121.97,0,222.58-54.476,268.78-169.56,30.879,1.6162,62.455-7.515,77.562-37l3.875-7.5312-7.3438-4.2188c-17.864-10.31-41.64-11.741-61.906-5.7812-2.495-21.539-16.669-40.415-33.5-53.938l-6.6875-5.375-5.5938,6.4688c-11.27,13.031-14.631,34.722-13.094,51.375,1.1338,12.242,4.9662,24.664,12.5,34.5-5.72,3.4412-12.232,6.16-18.031,8.125-11.801,3.9988-24.601,6.2188-37.062,6.2188h-27v-54.531h-53.375v-106.75h-64.031zm8.9062,8.9062,46.25,0,0,46.25-46.25,0,0-46.25zm3.8438,3.8438,0,38.531,3.6562,0,0-38.531-3.6562,0zm6.875,0,0,38.531,3.7812,0,0-38.531-3.7812,0zm7,0,0,38.531,3.7812,0,0-38.531-3.7812,0zm7,0,0,38.531,3.8125,0,0-38.531-3.8125,0zm7,0,0,38.531,3.8125,0,0-38.531-3.8125,0zm7.0312,0,0,38.531,3.6562,0,0-38.531-3.6562,0zm-145.5,49.5,46.25,0,0,46.281-46.25,0,0-46.281zm53.375,0,46.25,0,0,46.281-46.25,0,0-46.281zm53.375,0,46.25,0,0,46.281-46.25,0,0-46.281zm-102.91,3.875,0,38.531,3.6562,0,0-38.531-3.6562,0zm6.875,0,0,38.531,3.7812,0,0-38.531-3.7812,0zm7,0,0,38.531,3.8125,0,0-38.531-3.8125,0zm7,0,0,38.531,3.8125,0,0-38.531-3.8125,0zm7.0312,0,0,38.531,3.7812,0,0-38.531-3.7812,0zm7,0,0,38.531,3.6562,0,0-38.531-3.6562,0zm18.469,0,0,38.531,3.6562,0,0-38.531-3.6562,0zm6.875,0,0,38.531,3.7812,0,0-38.531-3.7812,0zm7,0,0,38.531,3.8125,0,0-38.531-3.8125,0zm7,0,0,38.531,3.8125,0,0-38.531-3.8125,0zm7.0312,0,0,38.531,3.7812,0,0-38.531-3.7812,0zm7,0,0,38.531,3.6562,0,0-38.531-3.6562,0zm18.469,0,0,38.531,3.6562,0,0-38.531-3.6562,0zm6.875,0,0,38.531,3.7812,0,0-38.531-3.7812,0zm7,0,0,38.531,3.7812,0,0-38.531-3.7812,0zm7,0,0,38.531,3.8125,0,0-38.531-3.8125,0zm7,0,0,38.531,3.8125,0,0-38.531-3.8125,0zm7.0312,0,0,38.531,3.6562,0,0-38.531-3.6562,0zm-198.88,49.5,46.25,0,0,46.25-46.25,0,0-46.25zm53.375,0,46.25,0,0,46.25-46.25,0,0-46.25zm53.375,0,46.25,0,0,46.25-46.25,0,0-46.25zm53.375,0,46.25,0,0,46.25-46.25,0,0-46.25zm53.375,0,46.25,0,0,46.25-46.25,0,0-46.25zm-209.62,3.875,0,38.531,3.625,0,0-38.531-3.625,0zm6.8438,0,0,38.531,3.8125,0,0-38.531-3.8125,0zm7,0,0,38.531,3.8125,0,0-38.531-3.8125,0zm7.0312,0,0,38.531,3.7812,0,0-38.531-3.7812,0zm7,0,0,38.531,3.7812,0,0-38.531-3.7812,0zm7,0,0,38.531,3.6562,0,0-38.531-3.6562,0zm18.469,0,0,38.531,3.6562,0,0-38.531-3.6562,0zm6.875,0,0,38.531,3.7812,0,0-38.531-3.7812,0zm7,0,0,38.531,3.8125,0,0-38.531-3.8125,0zm7,0,0,38.531,3.8125,0,0-38.531-3.8125,0zm7.0312,0,0,38.531,3.7812,0,0-38.531-3.7812,0zm7,0,0,38.531,3.6562,0,0-38.531-3.6562,0zm18.469,0,0,38.531,3.6562,0,0-38.531-3.6562,0zm6.875,0,0,38.531,3.7812,0,0-38.531-3.7812,0zm7,0,0,38.531,3.8125,0,0-38.531-3.8125,0zm7,0,0,38.531,3.8125,0,0-38.531-3.8125,0zm7.0312,0,0,38.531,3.7812,0,0-38.531-3.7812,0zm7,0,0,38.531,3.6562,0,0-38.531-3.6562,0zm18.469,0,0,38.531,3.6562,0,0-38.531-3.6562,0zm6.875,0,0,38.531,3.7812,0,0-38.531-3.7812,0zm7,0,0,38.531,3.7812,0,0-38.531-3.7812,0zm7,0,0,38.531,3.8125,0,0-38.531-3.8125,0zm7,0,0,38.531,3.8125,0,0-38.531-3.8125,0zm7.0312,0,0,38.531,3.6562,0,0-38.531-3.6562,0zm18.469,0,0,38.531,3.6562,0,0-38.531-3.6562,0zm6.8438,0,0,38.531,3.8125,0,0-38.531-3.8125,0zm7.0312,0,0,38.531,3.7812,0,0-38.531-3.7812,0zm7,0,0,38.531,3.7812,0,0-38.531-3.7812,0zm7,0,0,38.531,3.8125,0,0-38.531-3.8125,0zm7.0312,0,0,38.531,3.625,0,0-38.531-3.625,0zm-155.5,117.38c7.0462,0,12.75,5.735,12.75,12.781,0,7.0462-5.7038,12.75-12.75,12.75-7.0488,0-12.781-5.7038-12.781-12.75s5.7325-12.781,12.781-12.781zm-24.688,34.312c9.6512,22.254,26.992,42.66,58.594,57.656-4.815,0.18125-9.6588,0.28125-14.531,0.28125-66.014-0.4075-101.64-22.725-130.62-51.688,8.6938,0.46125,16.954,0.6875,24.812,0.6875,6.8188,0,13.324-0.15375,19.5-0.5,16.394-0.92125,30.511-3.0875,42.25-6.4375z" transform="matrix(0.8,0,0,-0.8,0,580)"/><path d="m268.56,299.6c0.934,0,1.824-0.176,2.646-0.494-0.89-0.516-1.494-1.481-1.494-2.584,0-1.649,1.336-2.983,2.985-2.983,1.129,0,2.109,0.627,2.617,1.553,0.357-0.863,0.557-1.81,0.557-2.805,0-4.037-3.274-7.31-7.311-7.31s-7.313,3.273-7.313,7.31c0,4.04,3.276,7.313,7.313,7.313"/></g></g></svg>
