<!-- Created with Inkscape (http://www.inkscape.org/) -->
<svg xmlns:rdf="http://www.w3.org/1999/02/22-rdf-syntax-ns#" xmlns="http://www.w3.org/2000/svg" height="512" width="512" version="1.1" xmlns:cc="http://creativecommons.org/ns#" xmlns:dc="http://purl.org/dc/elements/1.1/">
 <metadata>
  <rdf:RDF>
   <cc:Work rdf:about="">
    <dc:format>image/svg+xml</dc:format>
    <dc:type rdf:resource="http://purl.org/dc/dcmitype/StillImage"/>
    <dc:title/>
   </cc:Work>
  </rdf:RDF>
 </metadata>
 <g fill="#000" transform="translate(0,-540.36218)">
  <path d="m373.43,720.43-109.9-63.55,0,127.25,109.9-63.702"/>
  <path d="m249.24,784.13,0-127.25-109.98,63.55,109.98,63.702"/>
  <path d="m242.13,644.67-109.88-63.918,0,127.44,109.88-63.522"/>
  <path d="m504.88,796.56-110.06-63.71,0,127.22,110.06-63.508"/>
  <path d="m117.94,708.19,0-127.44l-110.7,63.92,110.7,63.52"/>
  <path d="m117.94,1012,0-127.4l-110.7,63.67,110.7,63.73"/>
  <path d="m380.53,708.19,0-127.44-109.71,63.918,109.71,63.522"/>
  <path d="m512,936.04,0-127.24-109.78,63.502,109.78,63.736"/>
  <path d="m117.94,860.07,0-127.43l-110.7,63.92,110.7,63.51"/>
  <path d="M110.86,872.3-0.0000039062,808.8v127.23l110.86-63.73"/>
  <path d="m512,784.13,0-127.25-109.78,63.55,109.78,63.702"/>
  <path d="m504.88,644.67-110.06-63.918,0,127.44,110.06-63.522"/>
  <path d="m504.88,948.26-110.06-63.688,0,127.4,110.06-63.71"/>
  <path d="M110.86,720.43-0.0000039062,656.88v127.25l110.86-63.7"/>
 </g>
</svg>
