<!-- Created with Inkscape (http://www.inkscape.org/) -->
<svg xmlns:rdf="http://www.w3.org/1999/02/22-rdf-syntax-ns#" xmlns="http://www.w3.org/2000/svg" height="512" width="512" version="1.1" xmlns:cc="http://creativecommons.org/ns#" xmlns:dc="http://purl.org/dc/elements/1.1/">
 <metadata>
  <rdf:RDF>
   <cc:Work rdf:about="">
    <dc:format>image/svg+xml</dc:format>
    <dc:type rdf:resource="http://purl.org/dc/dcmitype/StillImage"/>
    <dc:title/>
   </cc:Work>
  </rdf:RDF>
 </metadata>
 <g transform="translate(0,-540.36218)">
  <g fill="#000" transform="matrix(2.0078125,0,0,2.0078125,-240.90823,-671.53423)">
   <path d="m305.97,693.27-54.738-31.651,0,63.378,54.738-31.727"/>
   <path d="m244.12,725,0-63.378-54.777,31.651,54.777,31.727"/>
   <path d="m240.58,655.54-54.725-31.835,0,63.472,54.725-31.637"/>
   <path d="m371.44,731.19-54.818-31.731,0,63.361,54.818-31.63"/>
   <path d="m178.73,687.18,0-63.472-55.136,31.835,55.136,31.637"/>
   <path d="m178.73,838.48,0-63.45-55.136,31.72,55.136,31.73"/>
   <path d="m309.51,687.18,0-63.472-54.643,31.835,54.643,31.637"/>
   <path d="m374.99,800.66,0-63.371-54.676,31.627,54.676,31.744"/>
   <path d="m178.73,762.82,0-63.465-55.136,31.835,55.136,31.63"/>
   <path d="m175.2,768.91-55.215-31.623,0,63.368,55.215-31.745"/>
   <path d="m374.99,725,0-63.378-54.676,31.651,54.676,31.727"/>
   <path d="m371.44,655.54-54.818-31.835,0,63.472,54.818-31.637"/>
   <path d="m371.44,806.75-54.818-31.72,0,63.451,54.818-31.731"/>
   <path d="m175.2,693.27-55.215-31.651,0,63.378,55.215-31.727"/>
  </g>
 </g>
</svg>
