<!-- Created with Inkscape (http://www.inkscape.org/) -->
<svg xmlns:rdf="http://www.w3.org/1999/02/22-rdf-syntax-ns#" xmlns="http://www.w3.org/2000/svg" xml:space="preserve" height="512" width="512" version="1.1" xmlns:cc="http://creativecommons.org/ns#" xmlns:dc="http://purl.org/dc/elements/1.1/"><metadata><rdf:RDF><cc:Work rdf:about=""><dc:format>image/svg+xml</dc:format><dc:type rdf:resource="http://purl.org/dc/dcmitype/StillImage"/><dc:title/></cc:Work></rdf:RDF></metadata><g fill-rule="nonzero" transform="matrix(1.25,0,0,-1.25,-260.47496,905.85587)" fill="#000"><path d="m395.3,666.24,0,42.905-21.886,0,0-18.035,21.886-24.87z"/><path d="m356.75,594.47-139.94-242.1c-1.0942-1.8872-1.9858-3.8942-2.6295-5.952l-0.49578-1.5913,0.69968-1.5246,11.036-23.971,0.71568-1.558,1.6046-0.64504c1.598-0.64238,3.1586-1.0315,4.4727-1.3207l3.0893-0.68636,1.5953,2.7201,8.94,15.222,5.7694,10.195,141.12,244.44,3.7463,6.7716h-39.729z"/><path d="m443.42,639.62-6.3905-43.71,0-14.58,126.79-219.6,40.047,0-160.45,277.89z"/><path d="m612.32,344.75c-0.15193,0.60906-0.34784,1.1861-0.55042,1.7699l-0.14393,0.41448-0.99956,2.9467h-3.1079l-29.287-0.10929h-309.37c-5.3456-8.968-14.525-24.446-20.591-34.683h339.49,0.008c3.9716,0.008,7.7605,0.78764,11.275,2.3376l1.4647,0.63438,0.70235,1.4394,10.806,22.345,0.6637,1.398-0.35584,1.5073z"/><path d="m473.95,547.76-7.2821,6.7476-28.171,26.111-1.3887,1.2901,0,1.8965,0,130.65,0,4.3354,4.3341,0,28.173,0,4.3354,0,0-4.3354,0-156.77,0-9.9302z"/><path d="m343.71,724.68,30.149-34.259,97.721,0,1.2101,2.355,18.514,31.904-147.6,0z"/><path d="m397.64,398.6s-15.612-11.576-26.511-8.3829c0,0,53.87-54.048,110.11-2.135,0,0,18.832,21.805,17.945,37.664l-7.3754,2.0058s-10.283-51.074-64.247-44.749c0,0-13.658,3.04-29.92,15.597"/><path d="m381.44,470.6s-1.7632,19.355,6.649,26.992c0,0-74.207-17.815-59.188-92.869,0,0,8.8014-27.442,22.794-34.944l5.5655,5.2416s-38.239,35.384-4.7352,78.162c0,0,9.7076,10.075,28.915,17.418"/><path d="m452.73,449.59s17.911-7.5686,20.705-18.584c0,0,19.218,73.86-54.048,95.952,0,0-28.359,5.1564-41.568-3.6664l2.0151-7.374s49.214,17.068,71.171-32.625c0,0,4.3087-13.302,1.7246-33.702"/><path d="m425.97,476.46c-6.3891-7.1381-17.344-7.7485-24.481-1.3714-7.1381,6.3825-7.7605,17.356-1.3754,24.486,6.3891,7.1288,17.347,7.7392,24.485,1.3714,7.1421-6.3838,7.7432-17.342,1.3714-24.486"/><path d="m380.46,405.79c-6.3798-7.1475-17.335-7.7645-24.468-1.3807-7.1435,6.3931-7.7552,17.342-1.3687,24.48,6.3745,7.1381,17.335,7.7645,24.48,1.3714,7.1301-6.3771,7.7378-17.34,1.3567-24.47"/><path d="m462.61,402.43c-6.3758-7.1301-17.328-7.7552-24.461-1.3807-7.1488,6.3931-7.7618,17.35-1.382,24.488,6.3851,7.1381,17.342,7.7552,24.488,1.3714,7.1395-6.3838,7.7339-17.351,1.3554-24.478"/></g></svg>
