<!-- Created with Inkscape (http://www.inkscape.org/) -->
<svg xmlns:rdf="http://www.w3.org/1999/02/22-rdf-syntax-ns#" xmlns="http://www.w3.org/2000/svg" height="512" width="512" version="1.1" xmlns:cc="http://creativecommons.org/ns#" xmlns:dc="http://purl.org/dc/elements/1.1/">
 <defs></defs>
 <metadata>
  <rdf:RDF>
   <cc:Work rdf:about="">
    <dc:format>image/svg+xml</dc:format>
    <dc:type rdf:resource="http://purl.org/dc/dcmitype/StillImage"/>
    <dc:title/>
   </cc:Work>
  </rdf:RDF>
 </metadata>
 <g transform="translate(160.21177,-21.836721)">
  <path d="m-134.9,22.67c-1.7346,0-1.3568,160.2,0.38192,161.94,1.4226,1.4226,140.67,79.846,142,79.975,0.50414,0.0488,0.91662-36.396,0.91662-80.968v-81.006l-49.806-27.988c-27.391-15.383-59.441-33.358-71.191-39.95-11.75-6.591-21.79-11.992-22.3-11.992zm158.61,89.218c-0.36805,0-0.64927,36.528-0.64927,81.159v81.159l43.081,24.176c23.695,13.295,55.455,31.173,70.58,39.758,15.124,8.5858,28.296,15.494,29.294,15.353,1.5881-0.22346,1.7892-10.232,1.4513-80.281-0.28462-59.009-0.78004-80.395-1.8332-81.426-0.78-0.77-24.23-14.18-52.13-29.79-27.896-15.61-59.375-33.26-69.93-39.23s-19.492-10.88-19.86-10.88zm301.95,0.34373c-0.20924-0.20924-32.467,17.653-71.726,39.682l-71.382,40.064-0.34373,80.968c-0.22942,59.101,0.0706,80.93,1.0694,80.93,0.75246,0,31.959-17.133,69.358-38.078s69.584-39.156,71.496-40.484l3.4755-2.4061-0.76385-80.128c-0.42291-44.073-0.97474-80.339-1.184-80.548zm-301.95,178.32c-0.19891,0.22101-0.63395,36.605-0.95481,80.854l-0.57289,80.433,4.3921,2.8644c2.4274,1.5669,29.179,16.742,59.428,33.724,30.248,16.982,60.497,34.037,67.219,37.887,6.7219,3.85,12.772,6.8409,13.444,6.6837,0.79485-0.18587,1.3084-27.781,1.5277-78.982,0.18551-43.3,0.10175-79.853-0.22915-81.197-0.33088-1.3444-3.239-3.892-6.4545-5.6525-3.22-1.74-35.46-19.78-71.651-40.09-36.189-20.3-65.95-36.73-66.149-36.51z" stroke="#000" stroke-linecap="butt" stroke-miterlimit="4" stroke-dasharray="none" stroke-width="1.66597939" fill="#000"/>
 </g>
</svg>
