<?xml version="1.0" encoding="UTF-8" standalone="no"?>
<!-- Created with Inkscape (http://www.inkscape.org/) -->

<svg
   xmlns:dc="http://purl.org/dc/elements/1.1/"
   xmlns:cc="http://creativecommons.org/ns#"
   xmlns:rdf="http://www.w3.org/1999/02/22-rdf-syntax-ns#"
   xmlns:svg="http://www.w3.org/2000/svg"
   xmlns="http://www.w3.org/2000/svg"
   xmlns:sodipodi="http://sodipodi.sourceforge.net/DTD/sodipodi-0.dtd"
   xmlns:inkscape="http://www.inkscape.org/namespaces/inkscape"
   width="512"
   height="512"
   id="svg2"
   version="1.1"
   inkscape:version="0.48.5 r10040"
   sodipodi:docname="consul.svg"
   inkscape:export-filename="/home/simon/Dropbox/dev/consul.png"
   inkscape:export-xdpi="36.439999"
   inkscape:export-ydpi="36.439999">
  <sodipodi:namedview
     id="base"
     pagecolor="#ffffff"
     bordercolor="#666666"
     borderopacity="1.0"
     inkscape:pageopacity="0.0"
     inkscape:pageshadow="2"
     inkscape:zoom="0.7"
     inkscape:cx="352.28448"
     inkscape:cy="243.68469"
     inkscape:document-units="px"
     inkscape:current-layer="layer1"
     showgrid="false"
     inkscape:window-width="1920"
     inkscape:window-height="1136"
     inkscape:window-x="0"
     inkscape:window-y="27"
     inkscape:window-maximized="1"
     fit-margin-top="50"
     fit-margin-left="50"
     fit-margin-right="50"
     fit-margin-bottom="50"
     inkscape:snap-global="true"
     inkscape:object-paths="true"
     inkscape:snap-bbox="true"
     inkscape:bbox-nodes="true"
     inkscape:snap-page="true" />
  <defs
     id="defs4">
    <marker
       style="overflow:visible"
       id="Arrow1Mend"
       refX="0"
       refY="0"
       orient="auto"
       inkscape:stockid="Arrow1Mend">
      <path
         transform="matrix(-0.4,0,0,-0.4,-4,0)"
         style="fill-rule:evenodd;stroke:#000000;stroke-width:1pt"
         d="M 0,0 5,-5 -12.5,0 5,5 0,0 z"
         id="path4030"
         inkscape:connector-curvature="0" />
    </marker>
    <marker
       style="overflow:visible"
       id="Arrow1Mstart"
       refX="0"
       refY="0"
       orient="auto"
       inkscape:stockid="Arrow1Mstart">
      <path
         transform="matrix(0.4,0,0,0.4,4,0)"
         style="fill-rule:evenodd;stroke:#000000;stroke-width:1pt"
         d="M 0,0 5,-5 -12.5,0 5,5 0,0 z"
         id="path4027"
         inkscape:connector-curvature="0" />
    </marker>
    <marker
       style="overflow:visible"
       id="Arrow1Sstart"
       refX="0"
       refY="0"
       orient="auto"
       inkscape:stockid="Arrow1Sstart">
      <path
         transform="matrix(0.2,0,0,0.2,1.2,0)"
         style="fill-rule:evenodd;stroke:#000000;stroke-width:1pt"
         d="M 0,0 5,-5 -12.5,0 5,5 0,0 z"
         id="path4033"
         inkscape:connector-curvature="0" />
    </marker>
    <marker
       inkscape:stockid="Arrow2Lstart"
       orient="auto"
       refY="0"
       refX="0"
       id="Arrow2Lstart"
       style="overflow:visible">
      <path
         id="path4039"
         style="fill-rule:evenodd;stroke-width:0.625;stroke-linejoin:round"
         d="M 8.7185878,4.0337352 -2.2072895,0.01601326 8.7185884,-4.0017078 c -1.7454984,2.3720609 -1.7354408,5.6174519 -6e-7,8.035443 z"
         transform="matrix(1.1,0,0,1.1,1.1,0)"
         inkscape:connector-curvature="0" />
    </marker>
    <marker
       inkscape:stockid="Arrow1Lstart"
       orient="auto"
       refY="0"
       refX="0"
       id="Arrow1Lstart"
       style="overflow:visible">
      <path
         id="path4021"
         d="M 0,0 5,-5 -12.5,0 5,5 0,0 z"
         style="fill-rule:evenodd;stroke:#000000;stroke-width:1pt"
         transform="matrix(0.8,0,0,0.8,10,0)"
         inkscape:connector-curvature="0" />
    </marker>
    <marker
       style="overflow:visible"
       id="Arrow2Mend"
       refX="0"
       refY="0"
       orient="auto"
       inkscape:stockid="Arrow2Mend">
      <path
         inkscape:connector-curvature="0"
         transform="scale(-0.6,-0.6)"
         d="M 8.7185878,4.0337352 -2.2072895,0.01601326 8.7185884,-4.0017078 c -1.7454984,2.3720609 -1.7354408,5.6174519 -6e-7,8.035443 z"
         style="fill-rule:evenodd;stroke-width:0.625;stroke-linejoin:round"
         id="path4048" />
    </marker>
    <marker
       style="overflow:visible"
       id="TriangleOutL"
       refX="0"
       refY="0"
       orient="auto"
       inkscape:stockid="TriangleOutL">
      <path
         inkscape:connector-curvature="0"
         transform="scale(0.8,0.8)"
         style="fill-rule:evenodd;stroke:#000000;stroke-width:1pt"
         d="m 5.77,0 -8.65,5 0,-10 8.65,5 z"
         id="path4163" />
    </marker>
    <marker
       style="overflow:visible"
       id="Arrow2Lend"
       refX="0"
       refY="0"
       orient="auto"
       inkscape:stockid="Arrow2Lend">
      <path
         inkscape:connector-curvature="0"
         transform="matrix(-1.1,0,0,-1.1,-1.1,0)"
         d="M 8.7185878,4.0337352 -2.2072895,0.01601326 8.7185884,-4.0017078 c -1.7454984,2.3720609 -1.7354408,5.6174519 -6e-7,8.035443 z"
         style="fill-rule:evenodd;stroke-width:0.625;stroke-linejoin:round"
         id="path4042" />
    </marker>
    <marker
       style="overflow:visible"
       id="Arrow1Lend"
       refX="0"
       refY="0"
       orient="auto"
       inkscape:stockid="Arrow1Lend">
      <path
         inkscape:connector-curvature="0"
         transform="matrix(-0.8,0,0,-0.8,-10,0)"
         style="fill-rule:evenodd;stroke:#000000;stroke-width:1pt"
         d="M 0,0 5,-5 -12.5,0 5,5 0,0 z"
         id="path4024" />
    </marker>
    <clipPath
       clipPathUnits="userSpaceOnUse"
       id="clipPath3018">
      <path
         inkscape:connector-curvature="0"
         d="M 0,580 650,580 650,0 0,0 0,580 z"
         id="path3020" />
    </clipPath>
    <marker
       style="overflow:visible"
       id="Arrow2Mend-2"
       refX="0"
       refY="0"
       orient="auto"
       inkscape:stockid="Arrow2Mend">
      <path
         transform="scale(-0.6,-0.6)"
         d="M 8.7185878,4.0337352 -2.2072895,0.01601326 8.7185884,-4.0017078 c -1.7454984,2.3720609 -1.7354408,5.6174519 -6e-7,8.035443 z"
         style="fill-rule:evenodd;stroke-width:0.625;stroke-linejoin:round"
         id="path4048-6"
         inkscape:connector-curvature="0" />
    </marker>
    <marker
       style="overflow:visible"
       id="Arrow2Mend-3"
       refX="0"
       refY="0"
       orient="auto"
       inkscape:stockid="Arrow2Mend">
      <path
         transform="scale(-0.6,-0.6)"
         d="M 8.7185878,4.0337352 -2.2072895,0.01601326 8.7185884,-4.0017078 c -1.7454984,2.3720609 -1.7354408,5.6174519 -6e-7,8.035443 z"
         style="fill-rule:evenodd;stroke-width:0.625;stroke-linejoin:round"
         id="path4048-4"
         inkscape:connector-curvature="0" />
    </marker>
    <marker
       style="overflow:visible"
       id="Arrow2Mend-8"
       refX="0"
       refY="0"
       orient="auto"
       inkscape:stockid="Arrow2Mend">
      <path
         transform="scale(-0.6,-0.6)"
         d="M 8.7185878,4.0337352 -2.2072895,0.01601326 8.7185884,-4.0017078 c -1.7454984,2.3720609 -1.7354408,5.6174519 -6e-7,8.035443 z"
         style="fill-rule:evenodd;stroke-width:0.625;stroke-linejoin:round"
         id="path4048-3"
         inkscape:connector-curvature="0" />
    </marker>
    <marker
       style="overflow:visible"
       id="Arrow2Mend-6"
       refX="0"
       refY="0"
       orient="auto"
       inkscape:stockid="Arrow2Mend">
      <path
         transform="scale(-0.6,-0.6)"
         d="M 8.7185878,4.0337352 -2.2072895,0.01601326 8.7185884,-4.0017078 c -1.7454984,2.3720609 -1.7354408,5.6174519 -6e-7,8.035443 z"
         style="fill-rule:evenodd;stroke-width:0.625;stroke-linejoin:round"
         id="path4048-9"
         inkscape:connector-curvature="0" />
    </marker>
    <marker
       style="overflow:visible"
       id="Arrow2Mend-6a"
       refX="0"
       refY="0"
       orient="auto"
       inkscape:stockid="Arrow2Mend-6a">
      <path
         transform="scale(-0.6,-0.6)"
         d="M 8.7185878,4.0337352 -2.2072895,0.01601326 8.7185884,-4.0017078 c -1.7454984,2.3720609 -1.7354408,5.6174519 -6e-7,8.035443 z"
         style="fill:#ffffff;fill-rule:evenodd;stroke:#ffffff;stroke-width:0.625;stroke-linejoin:round"
         id="path6601"
         inkscape:connector-curvature="0" />
    </marker>
    <marker
       style="overflow:visible"
       id="Arrow2Mend-6aS"
       refX="0"
       refY="0"
       orient="auto"
       inkscape:stockid="Arrow2Mend-6aS">
      <path
         transform="scale(-0.6,-0.6)"
         d="M 8.7185878,4.0337352 -2.2072895,0.01601326 8.7185884,-4.0017078 c -1.7454984,2.3720609 -1.7354408,5.6174519 -6e-7,8.035443 z"
         style="fill:#ffffff;fill-rule:evenodd;stroke:#ffffff;stroke-width:0.625;stroke-linejoin:round"
         id="path6699"
         inkscape:connector-curvature="0" />
    </marker>
    <marker
       style="overflow:visible"
       id="Arrow2Mend-6p"
       refX="0"
       refY="0"
       orient="auto"
       inkscape:stockid="Arrow2Mend-6p">
      <path
         transform="scale(-0.6,-0.6)"
         d="M 8.7185878,4.0337352 -2.2072895,0.01601326 8.7185884,-4.0017078 c -1.7454984,2.3720609 -1.7354408,5.6174519 -6e-7,8.035443 z"
         style="fill:#ffffff;fill-rule:evenodd;stroke:#ffffff;stroke-width:0.625;stroke-linejoin:round"
         id="path6702"
         inkscape:connector-curvature="0" />
    </marker>
    <marker
       style="overflow:visible"
       id="Arrow2MendL"
       refX="0"
       refY="0"
       orient="auto"
       inkscape:stockid="Arrow2MendL">
      <path
         inkscape:connector-curvature="0"
         transform="scale(-0.6,-0.6)"
         d="M 8.7185878,4.0337352 -2.2072895,0.01601326 8.7185884,-4.0017078 c -1.7454984,2.3720609 -1.7354408,5.6174519 -6e-7,8.035443 z"
         style="fill:#ffffff;fill-rule:evenodd;stroke:#ffffff;stroke-width:0.625;stroke-linejoin:round"
         id="path6813" />
    </marker>
    <marker
       style="overflow:visible"
       id="Arrow2Mendq"
       refX="0"
       refY="0"
       orient="auto"
       inkscape:stockid="Arrow2Mendq">
      <path
         inkscape:connector-curvature="0"
         transform="scale(-0.6,-0.6)"
         d="M 8.7185878,4.0337352 -2.2072895,0.01601326 8.7185884,-4.0017078 c -1.7454984,2.3720609 -1.7354408,5.6174519 -6e-7,8.035443 z"
         style="fill:#ffffff;fill-rule:evenodd;stroke:#ffffff;stroke-width:0.625;stroke-linejoin:round"
         id="path6816" />
    </marker>
    <marker
       style="overflow:visible"
       id="Arrow2Mend5"
       refX="0"
       refY="0"
       orient="auto"
       inkscape:stockid="Arrow2Mend5">
      <path
         inkscape:connector-curvature="0"
         transform="scale(-0.6,-0.6)"
         d="M 8.7185878,4.0337352 -2.2072895,0.01601326 8.7185884,-4.0017078 c -1.7454984,2.3720609 -1.7354408,5.6174519 -6e-7,8.035443 z"
         style="fill:#ffffff;fill-rule:evenodd;stroke:#ffffff;stroke-width:0.625;stroke-linejoin:round"
         id="path7038" />
    </marker>
    <marker
       inkscape:stockid="Arrow2LstartY"
       orient="auto"
       refY="0"
       refX="0"
       id="Arrow2LstartY"
       style="overflow:visible">
      <path
         id="path10026"
         style="fill:#ffffff;fill-rule:evenodd;stroke:#ffffff;stroke-width:0.625;stroke-linejoin:round"
         d="M 8.7185878,4.0337352 -2.2072895,0.01601326 8.7185884,-4.0017078 c -1.7454984,2.3720609 -1.7354408,5.6174519 -6e-7,8.035443 z"
         transform="matrix(1.1,0,0,1.1,1.1,0)"
         inkscape:connector-curvature="0" />
    </marker>
    <marker
       style="overflow:visible"
       id="Arrow2Lendd"
       refX="0"
       refY="0"
       orient="auto"
       inkscape:stockid="Arrow2Lendd">
      <path
         inkscape:connector-curvature="0"
         transform="matrix(-1.1,0,0,-1.1,-1.1,0)"
         d="M 8.7185878,4.0337352 -2.2072895,0.01601326 8.7185884,-4.0017078 c -1.7454984,2.3720609 -1.7354408,5.6174519 -6e-7,8.035443 z"
         style="fill:#ffffff;fill-rule:evenodd;stroke:#ffffff;stroke-width:0.625;stroke-linejoin:round"
         id="path10029" />
    </marker>
    <marker
       style="overflow:visible"
       id="Arrow1Mstart3"
       refX="0"
       refY="0"
       orient="auto"
       inkscape:stockid="Arrow1Mstart3">
      <path
         transform="matrix(0.4,0,0,0.4,4,0)"
         style="fill:#ffffff;fill-rule:evenodd;stroke:#ffffff;stroke-width:1pt"
         d="M 0,0 5,-5 -12.5,0 5,5 0,0 z"
         id="path11036"
         inkscape:connector-curvature="0" />
    </marker>
    <marker
       style="overflow:visible"
       id="Arrow1Mendb"
       refX="0"
       refY="0"
       orient="auto"
       inkscape:stockid="Arrow1Mendb">
      <path
         transform="matrix(-0.4,0,0,-0.4,-4,0)"
         style="fill:#ffffff;fill-rule:evenodd;stroke:#ffffff;stroke-width:1pt"
         d="M 0,0 5,-5 -12.5,0 5,5 0,0 z"
         id="path11039"
         inkscape:connector-curvature="0" />
    </marker>
  </defs>
  <metadata
     id="metadata7">
    <rdf:RDF>
      <cc:Work
         rdf:about="">
        <dc:format>image/svg+xml</dc:format>
        <dc:type
           rdf:resource="http://purl.org/dc/dcmitype/StillImage" />
        <dc:title></dc:title>
      </cc:Work>
    </rdf:RDF>
  </metadata>
  <g
     style="display:inline"
     transform="translate(117.62396,-84.822439)"
     id="layer1"
     inkscape:groupmode="layer"
     inkscape:label="Layer 1">
    <g
       id="g11170"
       transform="translate(1.6777827e-6,1.8415542)">
      <path
         inkscape:connector-curvature="0"
         id="path7222"
         d="M 111.63335,591.29808 C 55.666534,585.89996 1.9610283,560.92691 -39.428105,521.05457 -109.91518,453.15062 -134.83238,351.54628 -103.83794,258.41192 -73.726881,167.93201 4.3424355,102.52566 99.994754,87.641202 c 18.453956,-2.871608 54.858476,-2.862716 73.525176,0.01797 38.22877,5.899566 72.83977,19.402658 105.20385,41.044058 14.86468,9.93981 18.31323,13.99514 18.31323,21.53543 0,9.21952 -9.12217,17.08048 -18.12543,15.61945 -2.39765,-0.38908 -10.01354,-4.60957 -16.92421,-9.37888 -37.35604,-25.7808 -79.38307,-38.69551 -125.90065,-38.68864 -48.71295,0.007 -90.982067,13.82765 -131.7835966,43.08847 -4.60751077,3.30427 -15.6501364,13.26307 -24.5391664,22.13067 -68.024543,67.86046 -83.978817,170.17721 -40.044702,256.81198 39.89306,78.66614 126.365646,127.07183 213.663165,119.60453 40.75697,-3.48629 73.97702,-15.14525 108.09449,-37.93702 12.65758,-8.45575 15.55806,-9.84478 20.55715,-9.84478 5.008,0 6.46109,0.69921 10.41163,5.00999 3.53105,3.85305 4.59017,6.17607 4.5863,10.0594 -0.008,8.0553 -4.02972,12.78782 -19.69571,23.17665 -48.75812,32.33372 -107.52495,47.019 -165.70293,41.4076 z M 330.97174,473.31122 c -5.94637,-2.94342 -11.13344,-11.01688 -11.13344,-17.32876 0,-6.39454 5.20617,-14.43757 11.23411,-17.35566 7.05367,-3.41462 10.63031,-3.4338 17.98343,-0.0964 4.38628,1.99079 6.36258,3.96709 8.35337,8.35337 3.35205,7.3855 3.32899,11.93111 -0.0946,18.64176 -1.95521,3.83252 -4.40212,6.15737 -8.38282,7.96463 -7.24439,3.28897 -11.03045,3.25126 -17.96011,-0.17889 z m -31.92285,-73.79804 c -5.3518,-1.64394 -7.81332,-3.67787 -11.22585,-9.2758 -10.10847,-16.58195 8.73383,-35.94161 26.27261,-26.994 7.27949,3.71372 11.75838,12.49048 10.41916,20.41723 -1.17721,6.96784 -7.42468,14.16725 -13.84031,15.94919 -5.66382,1.57312 -6.20443,1.56863 -11.62561,-0.0966 z m 66.41873,-2.21259 c -13.26921,-6.6667 -14.61842,-25.38447 -2.45411,-34.04622 9.01816,-6.42149 23.51479,-2.91059 28.60204,6.92707 6.59762,12.7584 -3.3,29.46425 -17.45652,29.46425 -2.21307,0 -6.1242,-1.0553 -8.69141,-2.3451 z M 117.16495,387.16547 c -13.66875,-5.7354 -23.126752,-14.67815 -29.182024,-27.59222 -3.115394,-6.64419 -3.534428,-9.2075 -3.534428,-21.62101 0,-12.85558 0.342609,-14.78206 3.930634,-22.10141 5.233567,-10.67615 14.778198,-19.97388 25.924638,-25.25401 8.19331,-3.88122 10.2358,-4.2828 21.78295,-4.2828 11.53159,0 13.59558,0.40442 21.72924,4.25768 4.957,2.34831 11.76913,7.03944 15.1905,10.4608 3.42136,3.42137 8.11248,10.2335 10.4608,15.1905 3.90588,8.24475 4.2562,10.0956 4.23988,22.39987 -0.0156,11.69692 -0.47532,14.39352 -3.59463,21.0819 -4.98407,10.6867 -14.40868,20.29609 -25.04725,25.53832 -7.79644,3.84174 -10.30879,4.38988 -21.60088,4.71281 -10.913,0.31209 -13.8762,-0.0952 -20.29943,-2.79043 z m 113.34092,-31.01158 c -8.91168,-3.87934 -13.83977,-17.37282 -9.44718,-25.86713 2.97081,-5.74491 9.20769,-10.61667 14.97723,-11.69904 3.76415,-0.70617 6.35604,-0.19674 11.09148,2.17994 8.33368,4.1826 11.52916,8.85865 11.52916,16.87101 0,15.11582 -14.32137,24.53524 -28.15069,18.51522 z m 71.22552,-36.99501 c -10.30012,-2.20044 -15.41148,-8.7191 -15.41938,-19.66473 -0.005,-7.69472 3.66938,-13.55529 10.81816,-17.25206 12.2386,-6.32882 28.05466,3.40923 28.06813,17.28176 0.0121,13.03084 -11.05057,22.28757 -23.46691,19.63503 z m 68.37582,-1.26377 c -17.4656,-4.04516 -21.04869,-26.91507 -5.68452,-36.28271 8.5505,-5.2133 21.33864,-2.3116 26.48086,6.00867 3.56704,5.7716 3.60243,15.97998 0.0754,21.76444 -4.06544,6.66757 -13.0352,10.32461 -20.87176,8.5096 z m -36.18576,-77.17208 c -15.15469,-5.40541 -17.97967,-25.08419 -4.99483,-34.79386 5.16682,-3.8636 15.95529,-4.29028 21.43744,-0.84785 20.09394,12.6177 5.81054,43.579 -16.44261,35.64171 z"
         style="fill:#000000;fill-opacity:1;stroke:#000000;stroke-width:1.34125245;stroke-opacity:1" />
    </g>
  </g>
</svg>
