<?xml version="1.0" encoding="UTF-8" standalone="no"?>
<!-- Created with Inkscape (http://www.inkscape.org/) -->

<svg
   xmlns:dc="http://purl.org/dc/elements/1.1/"
   xmlns:cc="http://creativecommons.org/ns#"
   xmlns:rdf="http://www.w3.org/1999/02/22-rdf-syntax-ns#"
   xmlns:svg="http://www.w3.org/2000/svg"
   xmlns="http://www.w3.org/2000/svg"
   xmlns:sodipodi="http://sodipodi.sourceforge.net/DTD/sodipodi-0.dtd"
   xmlns:inkscape="http://www.inkscape.org/namespaces/inkscape"
   id="svg11433"
   version="1.1"
   inkscape:version="0.48.5 r10040"
   width="512"
   height="512"
   xml:space="preserve"
   sodipodi:docname="docker.svg"><metadata
     id="metadata11439"><rdf:RDF><cc:Work
         rdf:about=""><dc:format>image/svg+xml</dc:format><dc:type
           rdf:resource="http://purl.org/dc/dcmitype/StillImage" /><dc:title></dc:title></cc:Work></rdf:RDF></metadata><defs
     id="defs11437" /><sodipodi:namedview
     pagecolor="#ffffff"
     bordercolor="#666666"
     borderopacity="1"
     objecttolerance="10"
     gridtolerance="10"
     guidetolerance="10"
     inkscape:pageopacity="0"
     inkscape:pageshadow="2"
     inkscape:window-width="1920"
     inkscape:window-height="1136"
     id="namedview11435"
     showgrid="false"
     inkscape:snap-bbox="true"
     inkscape:snap-page="true"
     inkscape:zoom="0.65103448"
     inkscape:cx="236.29441"
     inkscape:cy="208.34797"
     inkscape:window-x="0"
     inkscape:window-y="27"
     inkscape:window-maximized="1"
     inkscape:current-layer="g11441"
     fit-margin-top="0"
     fit-margin-left="0"
     fit-margin-right="0"
     fit-margin-bottom="0" /><g
     id="g11441"
     inkscape:groupmode="layer"
     inkscape:label="Docker logo masterfile 1.2"
     transform="matrix(1.25,0,0,-1.25,1.0054213e-5,512)"><path
       style="fill:#000000;fill-opacity:1;fill-rule:evenodd;stroke:none"
       d="m 162.50733,337.31459 0,-41.85187 -83.703746,0 0,-41.85188 -41.827369,0 0,-42.7585 -35.7995232,0 -0.5880825,-6.34639 c -1.9661559,-21.12098 0.9291704,-42.25667 9.6543547,-61.55263 l 3.773529,-7.64508 0.416559,-0.7106 C 40.247914,90.759033 85.579275,72.285401 134.98997,72.285401 c 95.63986,0 174.52329,42.715369 210.75407,132.955659 24.21234,-1.26732 48.97159,5.89258 60.81753,29.01207 l 3.03843,5.90533 -5.75831,3.30796 c -14.00714,8.08417 -32.65034,9.20643 -48.54131,4.53314 -1.95635,16.88875 -13.07013,31.6898 -26.26769,42.29293 l -5.24373,4.21459 -4.38612,-5.07221 c -8.83692,-10.21793 -11.47251,-27.22626 -10.26694,-40.28365 0.88899,-9.59947 3.89409,-19.3391 9.80138,-27.0518 -4.48511,-2.69832 -9.59163,-4.83012 -14.13849,-6.37089 -9.25347,-3.13546 -19.29008,-4.87619 -29.06107,-4.87619 l -21.17097,0 0,42.7585 -41.85188,0 0,83.70375 -50.20754,0 z m 6.98348,-6.98348 36.26509,0 0,-36.26509 -36.26509,0 0,36.26509 z m 3.01392,-3.01392 0,-30.21274 2.8669,0 0,30.21274 -2.8669,0 z m 5.39076,0 0,-30.21274 2.96491,0 0,30.21274 -2.96491,0 z m 5.48877,0 0,-30.21274 2.96491,0 0,30.21274 -2.96491,0 z m 5.48877,0 0,-30.21274 2.98942,0 0,30.21274 -2.98942,0 z m 5.48877,0 0,-30.21274 2.98942,0 0,30.21274 -2.98942,0 z m 5.51327,0 0,-30.21274 2.8669,0 0,30.21274 -2.8669,0 z m -114.088006,-38.81345 36.265086,0 0,-36.28959 -36.265086,0 0,36.28959 z m 41.851876,0 36.26508,0 0,-36.28959 -36.26508,0 0,36.28959 z m 41.85187,0 36.26509,0 0,-36.28959 -36.26509,0 0,36.28959 z m -80.689823,-3.03843 0,-30.21274 2.866902,0 0,30.21274 -2.866902,0 z m 5.390756,0 0,-30.21274 2.964916,0 0,30.21274 -2.964916,0 z m 5.48877,0 0,-30.21274 2.989417,0 0,30.21274 -2.989417,0 z m 5.488767,0 0,-30.21274 2.98942,0 0,30.21274 -2.98942,0 z m 5.51328,0 0,-30.21274 2.96491,0 0,30.21274 -2.96491,0 z m 5.48877,0 0,-30.21274 2.8669,0 0,30.21274 -2.8669,0 z m 14.48153,0 0,-30.21274 2.8669,0 0,30.21274 -2.8669,0 z m 5.39076,0 0,-30.21274 2.96491,0 0,30.21274 -2.96491,0 z m 5.48877,0 0,-30.21274 2.98941,0 0,30.21274 -2.98941,0 z m 5.48877,0 0,-30.21274 2.98941,0 0,30.21274 -2.98941,0 z m 5.51327,0 0,-30.21274 2.96492,0 0,30.21274 -2.96492,0 z m 5.48877,0 0,-30.21274 2.8669,0 0,30.21274 -2.8669,0 z m 14.48153,0 0,-30.21274 2.8669,0 0,30.21274 -2.8669,0 z m 5.39076,0 0,-30.21274 2.96491,0 0,30.21274 -2.96491,0 z m 5.48877,0 0,-30.21274 2.96491,0 0,30.21274 -2.96491,0 z m 5.48877,0 0,-30.21274 2.98942,0 0,30.21274 -2.98942,0 z m 5.48877,0 0,-30.21274 2.98942,0 0,30.21274 -2.98942,0 z m 5.51327,0 0,-30.21274 2.8669,0 0,30.21274 -2.8669,0 z m -155.939879,-38.81344 36.265089,0 0,-36.26509 -36.265089,0 0,36.26509 z m 41.851873,0 36.265086,0 0,-36.26509 -36.265086,0 0,36.26509 z m 41.851876,0 36.26508,0 0,-36.26509 -36.26508,0 0,36.26509 z m 41.85187,0 36.26509,0 0,-36.26509 -36.26509,0 0,36.26509 z m 41.85187,0 36.26509,0 0,-36.26509 -36.26509,0 0,36.26509 z m -164.369062,-3.03843 0,-30.21274 2.842398,0 0,30.21274 -2.842398,0 z m 5.366253,0 0,-30.21274 2.989419,0 0,30.21274 -2.989419,0 z m 5.48877,0 0,-30.21274 2.989419,0 0,30.21274 -2.989419,0 z m 5.513273,0 0,-30.21274 2.964916,0 0,30.21274 -2.964916,0 z m 5.48877,0 0,-30.21274 2.964916,0 0,30.21274 -2.964916,0 z m 5.488771,0 0,-30.21274 2.866902,0 0,30.21274 -2.866902,0 z m 14.481532,0 0,-30.21274 2.866902,0 0,30.21274 -2.866902,0 z m 5.390756,0 0,-30.21274 2.964916,0 0,30.21274 -2.964916,0 z m 5.48877,0 0,-30.21274 2.989417,0 0,30.21274 -2.989417,0 z m 5.488767,0 0,-30.21274 2.98942,0 0,30.21274 -2.98942,0 z m 5.51328,0 0,-30.21274 2.96491,0 0,30.21274 -2.96491,0 z m 5.48877,0 0,-30.21274 2.8669,0 0,30.21274 -2.8669,0 z m 14.48153,0 0,-30.21274 2.8669,0 0,30.21274 -2.8669,0 z m 5.39076,0 0,-30.21274 2.96491,0 0,30.21274 -2.96491,0 z m 5.48877,0 0,-30.21274 2.98941,0 0,30.21274 -2.98941,0 z m 5.48877,0 0,-30.21274 2.98941,0 0,30.21274 -2.98941,0 z m 5.51327,0 0,-30.21274 2.96492,0 0,30.21274 -2.96492,0 z m 5.48877,0 0,-30.21274 2.8669,0 0,30.21274 -2.8669,0 z m 14.48153,0 0,-30.21274 2.8669,0 0,30.21274 -2.8669,0 z m 5.39076,0 0,-30.21274 2.96491,0 0,30.21274 -2.96491,0 z m 5.48877,0 0,-30.21274 2.96491,0 0,30.21274 -2.96491,0 z m 5.48877,0 0,-30.21274 2.98942,0 0,30.21274 -2.98942,0 z m 5.48877,0 0,-30.21274 2.98942,0 0,30.21274 -2.98942,0 z m 5.51327,0 0,-30.21274 2.8669,0 0,30.21274 -2.8669,0 z m 14.48153,0 0,-30.21274 2.86691,0 0,30.21274 -2.86691,0 z m 5.36626,0 0,-30.21274 2.98942,0 0,30.21274 -2.98942,0 z m 5.51327,0 0,-30.21274 2.96492,0 0,30.21274 -2.96492,0 z m 5.48877,0 0,-30.21274 2.96492,0 0,30.21274 -2.96492,0 z m 5.48877,0 0,-30.21274 2.98942,0 0,30.21274 -2.98942,0 z m 5.51327,0 0,-30.21274 2.8424,0 0,30.21274 -2.8424,0 z m -121.9291,-92.03491 c 5.52503,0 9.9974,-4.49687 9.9974,-10.02191 0,-5.52503 -4.47237,-9.9974 -9.9974,-9.9974 -5.527,0 -10.02191,4.47237 -10.02191,9.9974 0,5.52504 4.49491,10.02191 10.02191,10.02191 z m -19.35772,-26.90478 c 7.56764,-17.44939 21.16509,-33.450132 45.94395,-45.208842 -3.77549,-0.14212 -7.57353,-0.220531 -11.3941,-0.220531 -51.762045,0.319525 -79.700866,17.818901 -102.424374,40.528683 6.816857,-0.36167 13.293605,-0.53907 19.45573,-0.53907 5.34665,0 10.447286,0.12056 15.290145,0.39205 12.854504,0.72236 23.924177,2.42094 33.128649,5.04771 z"
       id="path11459"
       inkscape:connector-curvature="0" /><path
       inkscape:connector-curvature="0"
       id="path11501"
       style="fill:#000000;fill-opacity:1;fill-rule:evenodd;stroke:none"
       d="m 119.78754,148.73574 c 0.91545,0 1.78777,-0.17251 2.59345,-0.48419 -0.87233,-0.50575 -1.46433,-1.45158 -1.46433,-2.53267 0,-1.61625 1.30947,-2.92375 2.92571,-2.92375 1.10658,0 2.06711,0.61454 2.56502,1.52215 0.34991,-0.84586 0.54594,-1.77405 0.54594,-2.74929 0,-3.95681 -3.20897,-7.1648 -7.16579,-7.1648 -3.95681,0 -7.16774,3.20799 -7.16774,7.1648 0,3.95976 3.21093,7.16775 7.16774,7.16775" /></g></svg>