<?xml version="1.0" encoding="UTF-8" standalone="no"?>
<!-- Created with Inkscape (http://www.inkscape.org/) -->

<svg
   xmlns:dc="http://purl.org/dc/elements/1.1/"
   xmlns:cc="http://creativecommons.org/ns#"
   xmlns:rdf="http://www.w3.org/1999/02/22-rdf-syntax-ns#"
   xmlns:svg="http://www.w3.org/2000/svg"
   xmlns="http://www.w3.org/2000/svg"
   xmlns:sodipodi="http://sodipodi.sourceforge.net/DTD/sodipodi-0.dtd"
   xmlns:inkscape="http://www.inkscape.org/namespaces/inkscape"
   id="svg11433"
   version="1.1"
   inkscape:version="0.48.5 r10040"
   width="791.29095"
   height="512"
   xml:space="preserve"
   sodipodi:docname="docker.svg"><metadata
     id="metadata11439"><rdf:RDF><cc:Work
         rdf:about=""><dc:format>image/svg+xml</dc:format><dc:type
           rdf:resource="http://purl.org/dc/dcmitype/StillImage" /><dc:title /></cc:Work></rdf:RDF></metadata><defs
     id="defs11437" /><sodipodi:namedview
     pagecolor="#ffffff"
     bordercolor="#666666"
     borderopacity="1"
     objecttolerance="10"
     gridtolerance="10"
     guidetolerance="10"
     inkscape:pageopacity="0"
     inkscape:pageshadow="2"
     inkscape:window-width="1920"
     inkscape:window-height="1136"
     id="namedview11435"
     showgrid="false"
     inkscape:snap-bbox="true"
     inkscape:snap-page="true"
     inkscape:zoom="0.92070179"
     inkscape:cx="233.06221"
     inkscape:cy="251.41811"
     inkscape:window-x="0"
     inkscape:window-y="27"
     inkscape:window-maximized="1"
     inkscape:current-layer="g11441"
     fit-margin-top="0"
     fit-margin-left="0"
     fit-margin-right="0"
     fit-margin-bottom="0" /><g
     id="g11441"
     inkscape:groupmode="layer"
     inkscape:label="Docker logo masterfile 1.2"
     transform="matrix(1.25,0,0,-1.25,1.0054213e-5,512)"><g
       id="g11602"
       transform="matrix(1.5147929,0,0,1.5147929,-221.68913,-335.67811)"
       style="fill:#000000"><path
         transform="matrix(0.8,0,0,-0.8,0,580)"
         inkscape:connector-curvature="0"
         id="path11459"
         d="m 390.1875,110 0,53.375 -106.75,0 0,53.375 -53.34375,0 0,54.53125 -45.65625,0 -0.75,8.09375 c -2.5075,26.93625 1.185,53.89125 12.3125,78.5 l 4.8125,9.75 0.53125,0.90625 C 234.26625,424.44 292.07875,448 355.09375,448 c 121.9725,0 222.575,-54.47625 268.78125,-169.5625 30.87875,1.61625 62.455,-7.515 77.5625,-37 l 3.875,-7.53125 -7.34375,-4.21875 c -17.86375,-10.31 -41.64,-11.74125 -61.90625,-5.78125 -2.495,-21.53875 -16.66875,-40.415 -33.5,-53.9375 l -6.6875,-5.375 -5.59375,6.46875 c -11.27,13.03125 -14.63125,34.7225 -13.09375,51.375 1.13375,12.2425 4.96625,24.66375 12.5,34.5 -5.72,3.44125 -12.2325,6.16 -18.03125,8.125 -11.80125,3.99875 -24.60125,6.21875 -37.0625,6.21875 l -27,0 0,-54.53125 -53.375,0 0,-106.75 -64.03125,0 z m 8.90625,8.90625 46.25,0 0,46.25 -46.25,0 0,-46.25 z m 3.84375,3.84375 0,38.53125 3.65625,0 0,-38.53125 -3.65625,0 z m 6.875,0 0,38.53125 3.78125,0 0,-38.53125 -3.78125,0 z m 7,0 0,38.53125 3.78125,0 0,-38.53125 -3.78125,0 z m 7,0 0,38.53125 3.8125,0 0,-38.53125 -3.8125,0 z m 7,0 0,38.53125 3.8125,0 0,-38.53125 -3.8125,0 z m 7.03125,0 0,38.53125 3.65625,0 0,-38.53125 -3.65625,0 z m -145.5,49.5 46.25,0 0,46.28125 -46.25,0 0,-46.28125 z m 53.375,0 46.25,0 0,46.28125 -46.25,0 0,-46.28125 z m 53.375,0 46.25,0 0,46.28125 -46.25,0 0,-46.28125 z m -102.90625,3.875 0,38.53125 3.65625,0 0,-38.53125 -3.65625,0 z m 6.875,0 0,38.53125 3.78125,0 0,-38.53125 -3.78125,0 z m 7,0 0,38.53125 3.8125,0 0,-38.53125 -3.8125,0 z m 7,0 0,38.53125 3.8125,0 0,-38.53125 -3.8125,0 z m 7.03125,0 0,38.53125 3.78125,0 0,-38.53125 -3.78125,0 z m 7,0 0,38.53125 3.65625,0 0,-38.53125 -3.65625,0 z m 18.46875,0 0,38.53125 3.65625,0 0,-38.53125 -3.65625,0 z m 6.875,0 0,38.53125 3.78125,0 0,-38.53125 -3.78125,0 z m 7,0 0,38.53125 3.8125,0 0,-38.53125 -3.8125,0 z m 7,0 0,38.53125 3.8125,0 0,-38.53125 -3.8125,0 z m 7.03125,0 0,38.53125 3.78125,0 0,-38.53125 -3.78125,0 z m 7,0 0,38.53125 3.65625,0 0,-38.53125 -3.65625,0 z m 18.46875,0 0,38.53125 3.65625,0 0,-38.53125 -3.65625,0 z m 6.875,0 0,38.53125 3.78125,0 0,-38.53125 -3.78125,0 z m 7,0 0,38.53125 3.78125,0 0,-38.53125 -3.78125,0 z m 7,0 0,38.53125 3.8125,0 0,-38.53125 -3.8125,0 z m 7,0 0,38.53125 3.8125,0 0,-38.53125 -3.8125,0 z m 7.03125,0 0,38.53125 3.65625,0 0,-38.53125 -3.65625,0 z m -198.875,49.5 46.25,0 0,46.25 -46.25,0 0,-46.25 z m 53.375,0 46.25,0 0,46.25 -46.25,0 0,-46.25 z m 53.375,0 46.25,0 0,46.25 -46.25,0 0,-46.25 z m 53.375,0 46.25,0 0,46.25 -46.25,0 0,-46.25 z m 53.375,0 46.25,0 0,46.25 -46.25,0 0,-46.25 z m -209.625,3.875 0,38.53125 3.625,0 0,-38.53125 -3.625,0 z m 6.84375,0 0,38.53125 3.8125,0 0,-38.53125 -3.8125,0 z m 7,0 0,38.53125 3.8125,0 0,-38.53125 -3.8125,0 z m 7.03125,0 0,38.53125 3.78125,0 0,-38.53125 -3.78125,0 z m 7,0 0,38.53125 3.78125,0 0,-38.53125 -3.78125,0 z m 7,0 0,38.53125 3.65625,0 0,-38.53125 -3.65625,0 z m 18.46875,0 0,38.53125 3.65625,0 0,-38.53125 -3.65625,0 z m 6.875,0 0,38.53125 3.78125,0 0,-38.53125 -3.78125,0 z m 7,0 0,38.53125 3.8125,0 0,-38.53125 -3.8125,0 z m 7,0 0,38.53125 3.8125,0 0,-38.53125 -3.8125,0 z m 7.03125,0 0,38.53125 3.78125,0 0,-38.53125 -3.78125,0 z m 7,0 0,38.53125 3.65625,0 0,-38.53125 -3.65625,0 z m 18.46875,0 0,38.53125 3.65625,0 0,-38.53125 -3.65625,0 z m 6.875,0 0,38.53125 3.78125,0 0,-38.53125 -3.78125,0 z m 7,0 0,38.53125 3.8125,0 0,-38.53125 -3.8125,0 z m 7,0 0,38.53125 3.8125,0 0,-38.53125 -3.8125,0 z m 7.03125,0 0,38.53125 3.78125,0 0,-38.53125 -3.78125,0 z m 7,0 0,38.53125 3.65625,0 0,-38.53125 -3.65625,0 z m 18.46875,0 0,38.53125 3.65625,0 0,-38.53125 -3.65625,0 z m 6.875,0 0,38.53125 3.78125,0 0,-38.53125 -3.78125,0 z m 7,0 0,38.53125 3.78125,0 0,-38.53125 -3.78125,0 z m 7,0 0,38.53125 3.8125,0 0,-38.53125 -3.8125,0 z m 7,0 0,38.53125 3.8125,0 0,-38.53125 -3.8125,0 z m 7.03125,0 0,38.53125 3.65625,0 0,-38.53125 -3.65625,0 z m 18.46875,0 0,38.53125 3.65625,0 0,-38.53125 -3.65625,0 z m 6.84375,0 0,38.53125 3.8125,0 0,-38.53125 -3.8125,0 z m 7.03125,0 0,38.53125 3.78125,0 0,-38.53125 -3.78125,0 z m 7,0 0,38.53125 3.78125,0 0,-38.53125 -3.78125,0 z m 7,0 0,38.53125 3.8125,0 0,-38.53125 -3.8125,0 z m 7.03125,0 0,38.53125 3.625,0 0,-38.53125 -3.625,0 z m -155.5,117.375 c 7.04625,0 12.75,5.735 12.75,12.78125 0,7.04625 -5.70375,12.75 -12.75,12.75 -7.04875,0 -12.78125,-5.70375 -12.78125,-12.75 0,-7.04625 5.7325,-12.78125 12.78125,-12.78125 z m -24.6875,34.3125 c 9.65125,22.25375 26.9925,42.66 58.59375,57.65625 -4.815,0.18125 -9.65875,0.28125 -14.53125,0.28125 -66.01375,-0.4075 -101.645,-22.725 -130.625,-51.6875 8.69375,0.46125 16.95375,0.6875 24.8125,0.6875 6.81875,0 13.32375,-0.15375 19.5,-0.5 16.39375,-0.92125 30.51125,-3.0875 42.25,-6.4375 z"
         style="fill:#000000;fill-opacity:1;fill-rule:evenodd;stroke:none" /><path
         d="m 268.5645,299.5996 c 0.934,0 1.824,-0.176 2.646,-0.494 -0.89,-0.516 -1.494,-1.481 -1.494,-2.584 0,-1.649 1.336,-2.983 2.985,-2.983 1.129,0 2.109,0.627 2.617,1.553 0.357,-0.863 0.557,-1.81 0.557,-2.805 0,-4.037 -3.274,-7.31 -7.311,-7.31 -4.037,0 -7.313,3.273 -7.313,7.31 0,4.04 3.276,7.313 7.313,7.313"
         style="fill:#000000;fill-opacity:1;fill-rule:evenodd;stroke:none"
         id="path11501"
         inkscape:connector-curvature="0" /></g></g></svg>