<?xml version="1.0" encoding="UTF-8" standalone="no"?>
<!-- Created with Inkscape (http://www.inkscape.org/) -->

<svg
   xmlns:dc="http://purl.org/dc/elements/1.1/"
   xmlns:cc="http://creativecommons.org/ns#"
   xmlns:rdf="http://www.w3.org/1999/02/22-rdf-syntax-ns#"
   xmlns:svg="http://www.w3.org/2000/svg"
   xmlns="http://www.w3.org/2000/svg"
   xmlns:sodipodi="http://sodipodi.sourceforge.net/DTD/sodipodi-0.dtd"
   xmlns:inkscape="http://www.inkscape.org/namespaces/inkscape"
   width="512"
   height="512"
   id="svg12220"
   version="1.1"
   inkscape:version="0.48.5 r10040"
   sodipodi:docname="mesos.svg">
  <defs
     id="defs12222" />
  <sodipodi:namedview
     id="base"
     pagecolor="#ffffff"
     bordercolor="#666666"
     borderopacity="1.0"
     inkscape:pageopacity="0.0"
     inkscape:pageshadow="2"
     inkscape:zoom="0.98994949"
     inkscape:cx="100.08556"
     inkscape:cy="167.11101"
     inkscape:document-units="px"
     inkscape:current-layer="layer1"
     showgrid="false"
     inkscape:snap-bbox="true"
     inkscape:snap-page="true"
     inkscape:bbox-nodes="true"
     inkscape:window-width="1920"
     inkscape:window-height="1136"
     inkscape:window-x="0"
     inkscape:window-y="27"
     inkscape:window-maximized="1" />
  <metadata
     id="metadata12225">
    <rdf:RDF>
      <cc:Work
         rdf:about="">
        <dc:format>image/svg+xml</dc:format>
        <dc:type
           rdf:resource="http://purl.org/dc/dcmitype/StillImage" />
        <dc:title></dc:title>
      </cc:Work>
    </rdf:RDF>
  </metadata>
  <g
     inkscape:label="Layer 1"
     inkscape:groupmode="layer"
     id="layer1"
     transform="translate(0,-540.36218)">
    <path
       style="fill:#000000"
       inkscape:connector-curvature="0"
       d="m 373.42999,720.43017 -109.904,-63.54999 0,127.252 109.904,-63.70201"
       id="path12682" />
    <path
       style="fill:#000000"
       inkscape:connector-curvature="0"
       d="m 249.24199,784.12819 0,-127.25201 -109.98201,63.55 109.98201,63.70201"
       id="path12684" />
    <path
       style="fill:#000000"
       inkscape:connector-curvature="0"
       d="m 242.13399,644.66617 -109.878,-63.91799 0,127.44 109.878,-63.52201"
       id="path12686" />
    <path
       style="fill:#000000"
       inkscape:connector-curvature="0"
       d="m 504.87798,796.56018 -110.064,-63.71 0,127.21799 110.064,-63.50799"
       id="path12692" />
    <path
       style="fill:#000000"
       inkscape:connector-curvature="0"
       d="m 117.94398,708.18818 0,-127.44 L 7.2419951,644.66617 117.94398,708.18818"
       id="path12694" />
    <path
       style="fill:#000000"
       inkscape:connector-curvature="0"
       d="m 117.94398,1011.9762 0,-127.39603 L 7.2419951,948.26818 117.94398,1011.9762"
       id="path12698" />
    <path
       style="fill:#000000"
       inkscape:connector-curvature="0"
       d="m 380.52799,708.18818 0,-127.44 -109.712,63.91799 109.712,63.52201"
       id="path12702" />
    <path
       style="fill:#000000"
       inkscape:connector-curvature="0"
       d="m 511.99999,936.03619 0,-127.23801 -109.78,63.50201 109.78,63.736"
       id="path12712" />
    <path
       style="fill:#000000"
       inkscape:connector-curvature="0"
       d="m 117.94398,860.07018 0,-127.426 L 7.2419951,796.56219 117.94398,860.07018"
       id="path12714" />
    <path
       style="fill:#000000"
       inkscape:connector-curvature="0"
       d="M 110.86199,872.29617 -3.90625e-6,808.80217 l 0,127.23201 L 110.86199,872.29617"
       id="path12716" />
    <path
       style="fill:#000000"
       inkscape:connector-curvature="0"
       d="m 511.99999,784.12819 0,-127.25201 -109.78,63.55 109.78,63.70201"
       id="path12718" />
    <path
       style="fill:#000000"
       inkscape:connector-curvature="0"
       d="m 504.87798,644.66617 -110.064,-63.91799 0,127.44 110.064,-63.52201"
       id="path12720" />
    <path
       style="fill:#000000"
       inkscape:connector-curvature="0"
       d="m 504.87798,948.26419 -110.064,-63.68802 0,127.39803 110.064,-63.71001"
       id="path12722" />
    <path
       style="fill:#000000"
       inkscape:connector-curvature="0"
       d="M 110.86199,720.43017 -3.90625e-6,656.88018 l 0,127.252 L 110.86199,720.43017"
       id="path12726" />
  </g>
</svg>
