<?xml version="1.0" encoding="UTF-8" standalone="no"?>
<!-- Created with Inkscape (http://www.inkscape.org/) -->

<svg
   xmlns:dc="http://purl.org/dc/elements/1.1/"
   xmlns:cc="http://creativecommons.org/ns#"
   xmlns:rdf="http://www.w3.org/1999/02/22-rdf-syntax-ns#"
   xmlns:svg="http://www.w3.org/2000/svg"
   xmlns="http://www.w3.org/2000/svg"
   xmlns:sodipodi="http://sodipodi.sourceforge.net/DTD/sodipodi-0.dtd"
   xmlns:inkscape="http://www.inkscape.org/namespaces/inkscape"
   id="svg2"
   version="1.1"
   inkscape:version="0.48.5 r10040"
   width="512"
   height="512"
   xml:space="preserve"
   sodipodi:docname="puppet.svg"><metadata
     id="metadata8"><rdf:RDF><cc:Work
         rdf:about=""><dc:format>image/svg+xml</dc:format><dc:type
           rdf:resource="http://purl.org/dc/dcmitype/StillImage" /><dc:title></dc:title></cc:Work></rdf:RDF></metadata><defs
     id="defs6" /><sodipodi:namedview
     pagecolor="#ffffff"
     bordercolor="#666666"
     borderopacity="1"
     objecttolerance="10"
     gridtolerance="10"
     guidetolerance="10"
     inkscape:pageopacity="0"
     inkscape:pageshadow="2"
     inkscape:window-width="1920"
     inkscape:window-height="1136"
     id="namedview4"
     showgrid="false"
     fit-margin-top="0"
     fit-margin-left="0"
     fit-margin-right="0"
     fit-margin-bottom="0"
     inkscape:zoom="0.6675088"
     inkscape:cx="48.459835"
     inkscape:cy="75.252394"
     inkscape:window-x="0"
     inkscape:window-y="27"
     inkscape:window-maximized="1"
     inkscape:current-layer="g10" /><g
     id="g10"
     inkscape:groupmode="layer"
     inkscape:label="PL_logo_vertical_RGB"
     transform="matrix(1.25,0,0,-1.25,-260.47496,905.85587)"><path
       inkscape:connector-curvature="0"
       id="path38"
       style="fill:#000000;fill-opacity:1;fill-rule:nonzero;stroke:none"
       d="m 395.29627,666.24481 0,42.90472 -21.88617,0 0,-18.03456 21.88617,-24.87016 z" /><path
       inkscape:connector-curvature="0"
       id="path22"
       style="fill:#000000;fill-opacity:1;fill-rule:nonzero;stroke:none"
       d="m 356.74532,594.47239 -139.9398,-242.0979 c -1.09417,-1.88716 -1.98577,-3.89425 -2.62948,-5.952 l -0.49578,-1.59128 0.69968,-1.52465 11.03638,-23.97056 0.71568,-1.55797 1.60461,-0.64504 c 1.59795,-0.64238 3.15858,-1.03154 4.47266,-1.32074 l 3.08928,-0.68636 1.59528,2.72011 8.93998,15.22249 5.76941,10.19542 141.1246,244.43686 3.74632,6.77162 -39.72882,0 z" /><path
       inkscape:connector-curvature="0"
       id="path26"
       style="fill:#000000;fill-opacity:1;fill-rule:nonzero;stroke:none"
       d="m 443.41665,639.62264 -6.39046,-43.7097 0,-14.58011 126.78837,-219.60135 40.04734,0 -160.44525,277.89116 z" /><path
       inkscape:connector-curvature="0"
       id="path30"
       style="fill:#000000;fill-opacity:1;fill-rule:nonzero;stroke:none"
       d="m 612.32384,344.74605 c -0.15193,0.60906 -0.34784,1.18613 -0.55042,1.76987 l -0.14393,0.41448 -0.99956,2.94668 -3.10793,0 -29.28685,-0.10929 -309.37434,0 c -5.3456,-8.96797 -14.52548,-24.44635 -20.59075,-34.68308 l 339.49015,0 0.008,0 c 3.97155,0.008 7.76052,0.78764 11.27494,2.33762 l 1.46468,0.63438 0.70235,1.43935 10.80581,22.34463 0.6637,1.39804 -0.35584,1.50732 z" /><path
       inkscape:connector-curvature="0"
       id="path34"
       style="fill:#000000;fill-opacity:1;fill-rule:nonzero;stroke:none"
       d="m 473.94973,547.75511 -7.28206,6.74764 -28.17135,26.11093 -1.38871,1.29009 0,1.89648 0,130.65064 0,4.33538 4.33406,0 28.17267,0 4.33539,0 0,-4.33538 0,-156.76557 0,-9.93021 z" /><path
       inkscape:connector-curvature="0"
       id="path42"
       style="fill:#000000;fill-opacity:1;fill-rule:nonzero;stroke:none"
       d="m 343.70945,724.68469 30.14912,-34.25928 97.72143,0 1.21013,2.35495 18.51435,31.90433 -147.59503,0 z" /><path
       inkscape:connector-curvature="0"
       id="path46"
       style="fill:#000000;fill-opacity:1;fill-rule:nonzero;stroke:none"
       d="m 397.64028,398.59812 c 0,0 -15.61165,-11.57613 -26.51076,-8.3829 0,0 53.87047,-54.04772 110.10787,-2.13504 0,0 18.83154,21.80487 17.94527,37.66441 l -7.37535,2.00577 c 0,0 -10.28338,-51.07439 -64.24714,-44.74923 0,0 -13.65786,3.03996 -29.91989,15.59699" /><path
       inkscape:connector-curvature="0"
       id="path50"
       style="fill:#000000;fill-opacity:1;fill-rule:nonzero;stroke:none"
       d="m 381.44183,470.59697 c 0,0 -1.76321,19.3553 6.64901,26.99187 0,0 -74.20666,-17.81466 -59.18807,-92.86894 0,0 8.80138,-27.44234 22.79376,-34.9443 l 5.5655,5.24164 c 0,0 -38.23882,35.38411 -4.73521,78.16222 0,0 9.70764,10.07548 28.91501,17.41751" /><path
       inkscape:connector-curvature="0"
       id="path54"
       style="fill:#000000;fill-opacity:1;fill-rule:nonzero;stroke:none"
       d="m 452.72887,449.58695 c 0,0 17.91062,-7.5686 20.70536,-18.58365 0,0 19.21804,73.86015 -54.04771,95.95156 0,0 -28.35926,5.15635 -41.568,-3.66635 l 2.0151,-7.37402 c 0,0 49.21389,17.06833 71.17069,-32.62535 0,0 4.30873,-13.30202 1.72456,-33.70219" /><path
       inkscape:connector-curvature="0"
       id="path58"
       style="fill:#000000;fill-opacity:1;fill-rule:nonzero;stroke:none"
       d="m 425.97009,476.45634 c -6.38913,-7.13813 -17.34421,-7.74852 -24.481,-1.37138 -7.13813,6.38246 -7.76052,17.3562 -1.37538,24.48633 6.38913,7.1288 17.34687,7.73919 24.485,1.37138 7.14212,-6.3838 7.74318,-17.34154 1.37138,-24.48633" /><path
       inkscape:connector-curvature="0"
       id="path62"
       style="fill:#000000;fill-opacity:1;fill-rule:nonzero;stroke:none"
       d="m 380.45787,405.78756 c -6.3798,-7.14746 -17.33488,-7.76451 -24.46767,-1.38071 -7.14346,6.39312 -7.75519,17.34154 -1.36872,24.47967 6.37447,7.13812 17.33488,7.76451 24.47967,1.37138 7.13013,-6.37714 7.73785,-17.34021 1.35672,-24.47034" /><path
       inkscape:connector-curvature="0"
       id="path66"
       style="fill:#000000;fill-opacity:1;fill-rule:nonzero;stroke:none"
       d="m 462.61243,402.42587 c -6.3758,-7.13013 -17.32822,-7.75518 -24.46101,-1.38071 -7.14879,6.39312 -7.76185,17.34954 -1.38205,24.48766 6.38513,7.13813 17.34155,7.75519 24.48767,1.37139 7.13946,-6.3838 7.73386,-17.35088 1.35539,-24.47834" /></g></svg>